STARTFONT 2.3
FONT -FontForge-Permanent Marker-Book-R-Normal--24-240-72-72-P-139-ISO10646-1
SIZE 24 72 72  2
FONTBOUNDINGBOX 37 35 -7 -8
COMMENT "Generated by fontforge, http://fontforge.sourceforge.net"
COMMENT "Copyright (c) 2010 by Font Diner, Inc. All rights reserved."
STARTPROPERTIES 40
FOUNDRY "FontForge"
FAMILY_NAME "Permanent Marker"
WEIGHT_NAME "Book"
SLANT "R"
SETWIDTH_NAME "Normal"
ADD_STYLE_NAME ""
PIXEL_SIZE 24
POINT_SIZE 240
RESOLUTION_X 72
RESOLUTION_Y 72
SPACING "P"
AVERAGE_WIDTH 139
CHARSET_REGISTRY "ISO10646"
CHARSET_ENCODING "1"
FONTNAME_REGISTRY ""
CHARSET_COLLECTIONS "ISO10646-1"
BITS_PER_PIXEL 2
FONT_NAME "PermanentMarker-Regular"
FACE_NAME "Permanent Marker Regular"
COPYRIGHT "Copyright (c) 2010 by Font Diner, Inc. All rights reserved."
FONT_VERSION "1.001"
FONT_ASCENT 19
FONT_DESCENT 5
UNDERLINE_POSITION -2
UNDERLINE_THICKNESS 2
X_HEIGHT 13
CAP_HEIGHT 16
RAW_ASCENT 799
RAW_DESCENT 200
NORM_SPACE 9
RELATIVE_WEIGHT 40
RELATIVE_SETWIDTH 50
SUPERSCRIPT_X 0
SUPERSCRIPT_Y 11
SUPERSCRIPT_SIZE 15
SUBSCRIPT_X 0
SUBSCRIPT_Y 3
SUBSCRIPT_SIZE 15
AVG_LOWERCASE_WIDTH 137
AVG_UPPERCASE_WIDTH 163
ENDPROPERTIES
CHARS 230
STARTCHAR space
ENCODING 32
SWIDTH 370 0
DWIDTH 9 0
BBX 1 1 0 0
BITMAP
00
ENDCHAR
STARTCHAR exclam
ENCODING 33
SWIDTH 260 0
DWIDTH 6 0
BBX 7 19 0 -1
BITMAP
0050
01F0
02F4
03F4
07F4
07F0
0BE0
0FE0
0FD0
1FD0
1FC0
1F80
0600
0000
2500
BF40
BF00
7E00
1800
ENDCHAR
STARTCHAR quotedbl
ENCODING 34
SWIDTH 492 0
DWIDTH 12 0
BBX 11 12 2 6
BITMAP
090190
1F83F4
2FD7F8
3FCBF4
7F4FF0
BF0FD0
BF1FC0
FE2FC0
FD2F80
FC3F40
781F40
140900
ENDCHAR
STARTCHAR numbersign
ENCODING 35
SWIDTH 703 0
DWIDTH 17 0
BBX 18 17 0 0
BITMAP
0003807400
000BC0F800
000FD1FC00
001FD2FC00
056FEBFE00
0FFFFFFFD0
0FFFFFFF80
0ABE5FD000
00BD0FC000
01FEAFE000
3FFFFFFD00
7FFFFFF800
3FF9BF4000
0BE0FD0000
0FE1FD0000
1FD2FC0000
0B80B40000
ENDCHAR
STARTCHAR dollar
ENCODING 36
SWIDTH 493 0
DWIDTH 12 0
BBX 13 19 0 -1
BITMAP
00004000
0002D000
0003E000
0007F500
001FFF40
06FFFFC0
2FFEAA80
7FF40000
3FFF4000
1AFF8000
0006D000
0002E000
001BE000
0AFFC000
1FFE0000
1FFC0000
07F40000
02F00000
00400000
ENDCHAR
STARTCHAR percent
ENCODING 37
SWIDTH 643 0
DWIDTH 15 0
BBX 15 17 1 0
BITMAP
01E00028
07F000B8
1FF402F4
7EF80BF0
BDBC2FC0
BFFCBF00
7FE6F800
150BE000
002F8000
00BE1900
02F87F00
0FE1FF00
2F87FF80
7E0BDBC0
BD0BFFC0
FC0BFF40
B4019400
ENDCHAR
STARTCHAR ampersand
ENCODING 38
SWIDTH 599 0
DWIDTH 14 0
BBX 14 12 0 1
BITMAP
0002D000
0007F000
064BF000
2FFFF000
7FFFF900
FEFFFFD0
BFFFFFE0
2FFFE940
007FC000
003F8000
003F4000
002E0000
ENDCHAR
STARTCHAR quotesingle
ENCODING 39
SWIDTH 265 0
DWIDTH 6 0
BBX 6 12 2 6
BITMAP
0900
1F80
2FD0
3FC0
7F40
BF00
BF00
FE00
FD00
FC00
7800
1400
ENDCHAR
STARTCHAR parenleft
ENCODING 40
SWIDTH 361 0
DWIDTH 9 0
BBX 12 24 0 -4
BITMAP
00003D
0001FC
0007FC
001FFC
007FF4
00FF80
02FE00
07FC00
0BF800
0FF000
1FE000
1FD000
2FC000
3F8000
3F8000
7F4000
7F8000
7F8000
3F8000
3FC000
2FD000
1FC000
07C000
02D000
ENDCHAR
STARTCHAR parenright
ENCODING 41
SWIDTH 361 0
DWIDTH 9 0
BBX 11 25 -3 -5
BITMAP
000F00
000B80
000BE0
000BF0
000BF4
0007F8
0007F8
0003F8
0003F8
0003F8
0007F8
0007F0
000BE0
000FE0
002FD0
003FC0
00BF80
01FF00
07FD00
2FF800
7FE000
BF8000
BE0000
F80000
100000
ENDCHAR
STARTCHAR asterisk
ENCODING 42
SWIDTH 673 0
DWIDTH 16 0
BBX 15 13 2 5
BITMAP
00500100
01F42F00
03FDFE00
02FFFC00
00FFF900
ABFFFFF4
FFFFFFF8
BFFFF950
15FFF800
03FEFC00
0BF4BC00
0BE03C00
01400000
ENDCHAR
STARTCHAR plus
ENCODING 43
SWIDTH 579 0
DWIDTH 14 0
BBX 13 13 0 0
BITMAP
00060000
001F8000
002FC000
003F8000
003F8000
6BFFFE00
BFFFFF80
7FFFFE40
19FF0000
01FE0000
01FD0000
01FC0000
00640000
ENDCHAR
STARTCHAR comma
ENCODING 44
SWIDTH 204 0
DWIDTH 5 0
BBX 6 8 -3 -4
BITMAP
0100
0BD0
0FF0
0FF0
1FE0
3FC0
BF40
2E00
ENDCHAR
STARTCHAR hyphen
ENCODING 45
SWIDTH 609 0
DWIDTH 15 0
BBX 13 4 0 4
BITMAP
2BFFFE00
7FFFFF80
3FFFFE40
19400000
ENDCHAR
STARTCHAR period
ENCODING 46
SWIDTH 228 0
DWIDTH 5 0
BBX 5 5 -1 -1
BITMAP
1900
7F40
BF40
7F00
1800
ENDCHAR
STARTCHAR slash
ENCODING 47
SWIDTH 401 0
DWIDTH 10 0
BBX 13 18 -1 -1
BITMAP
00000740
00001F40
00003F40
0000BF40
0002FD00
0007F400
001FE000
003F8000
00BF0000
02FD0000
07F40000
1FD00000
3F800000
BE000000
BE000000
BD000000
BC000000
14000000
ENDCHAR
STARTCHAR zero
ENCODING 48
SWIDTH 686 0
DWIDTH 16 0
BBX 16 19 0 -1
BITMAP
00002D00
0000FF40
0002FFC0
001FFF80
003FFF80
00FFFFC0
02FFEFE0
07FE0BF0
0FF807F8
2FF002FC
3FD001FC
7F8001FD
BF4007FD
BF406FFD
BFEFFFFC
7FFFFFF0
2FFFFF80
0BFFF800
01590000
ENDCHAR
STARTCHAR one
ENCODING 49
SWIDTH 322 0
DWIDTH 8 0
BBX 7 18 0 0
BITMAP
0500
0B80
0FE0
0BF0
0BF4
07F4
07F4
07F8
07F4
0BF4
0FF0
1FF0
2FE0
3FD0
7FC0
7F80
7F40
2E00
ENDCHAR
STARTCHAR two
ENCODING 50
SWIDTH 650 0
DWIDTH 16 0
BBX 16 18 1 0
BITMAP
01554000
2FFFF800
7FFFFE00
7FFFFF80
3FFFFFC0
1540BFD0
0003FFC0
001FFF40
007FFD00
02FFE000
07FF8000
1FFE0000
3FF40168
7FE6BFFD
BFFFFFFF
7FFFFFFE
7FFFFF90
1BFA5000
ENDCHAR
STARTCHAR three
ENCODING 51
SWIDTH 561 0
DWIDTH 13 0
BBX 14 17 -1 0
BITMAP
016FFF80
1FFFFFE0
3FFFFFF0
7FFFFFF0
3FFFFFD0
15BFFE00
00FFF400
01FFF800
01FFFE00
006FFF80
0006FFC0
00002FD0
0556FFD0
0FFFFFC0
1FFFFF40
1FFFF400
0AA94000
ENDCHAR
STARTCHAR four
ENCODING 52
SWIDTH 582 0
DWIDTH 14 0
BBX 13 19 1 -1
BITMAP
0000D000
0001F000
2002F400
B802F800
BC02F400
BE03F400
BE03FA00
7FABFF80
7FFFFF80
3FFFFF40
1FFFE400
017FC000
003F4000
003F0000
007F0000
007F0000
003F8000
002F8000
000A4000
ENDCHAR
STARTCHAR five
ENCODING 53
SWIDTH 580 0
DWIDTH 14 0
BBX 15 17 1 0
BITMAP
00B80000
07FFAAE0
1FFFFFF4
7FFFFFF8
BFFFFFF8
BFFFA500
BFF40000
7FFE0000
2FFF8000
06FFD000
001FF000
0003F800
555BFC00
BFFFF800
BFFFF400
3FFFD000
06A90000
ENDCHAR
STARTCHAR six
ENCODING 54
SWIDTH 500 0
DWIDTH 12 0
BBX 13 19 -1 -1
BITMAP
00004000
000BE000
002FF000
007FF400
00FFE000
01FF0000
03FC0000
07F80000
0BF00000
0FE1F800
1FDBFD00
2FAFFF00
3F7FFF40
3F7FFF40
7FFFFE00
7FFFF800
3FFFE000
1FF90000
01400000
ENDCHAR
STARTCHAR seven
ENCODING 55
SWIDTH 576 0
DWIDTH 14 0
BBX 15 18 0 0
BITMAP
01500000
3FFF9000
BFFFF800
BFFFFD00
BFFFFE00
1005FF00
00007F00
0000BE00
0005FFA4
06FFFFF8
1FFFFFF8
1FFFFFA0
0FFFE000
017FC000
00BF4000
00FE0000
00FD0000
00BC0000
ENDCHAR
STARTCHAR eight
ENCODING 56
SWIDTH 537 0
DWIDTH 13 0
BBX 13 19 1 -1
BITMAP
00540000
07FF4F00
1FFF9F40
3FFFDF80
7FAFDFC0
BF0BFFC0
7F46FF80
3FEFFE00
2FFFF400
0FFF9000
1FFF0000
3FFF0000
3F6F8000
3F1FC000
3FBFC000
2FFF8000
1FFF4000
07FD0000
00500000
ENDCHAR
STARTCHAR nine
ENCODING 57
SWIDTH 529 0
DWIDTH 13 0
BBX 12 19 1 -1
BITMAP
000540
00BFD0
07FFF0
1FFFF8
3FFAFC
BF96FC
FFFFFE
FFFFFE
FFFFFC
6FEBF4
0003F0
0007E0
000BE0
000BD0
000FC0
000FC0
001F80
001F40
000500
ENDCHAR
STARTCHAR colon
ENCODING 58
SWIDTH 241 0
DWIDTH 6 0
BBX 6 12 -1 -1
BITMAP
0100
0FD0
1FE0
0FE0
0780
0000
0000
1900
7F40
BF40
7F00
1800
ENDCHAR
STARTCHAR semicolon
ENCODING 59
SWIDTH 245 0
DWIDTH 6 0
BBX 7 15 -2 -4
BITMAP
0040
03F4
03F8
03F8
01E0
0000
0000
0100
0F90
0FE0
1FE0
2FD0
7F80
BF40
6D00
ENDCHAR
STARTCHAR less
ENCODING 60
SWIDTH 625 0
DWIDTH 15 0
BBX 15 12 0 0
BITMAP
00000050
00000BF8
0001BFF8
002FFFE0
2BFFFE00
FFFF9000
BFF80000
6FFF9000
06FFFD00
006FFF00
0001BF80
00000500
ENDCHAR
STARTCHAR equal
ENCODING 61
SWIDTH 586 0
DWIDTH 14 0
BBX 13 9 0 2
BITMAP
056AAA40
2FFFFFC0
2FFFFFC0
1E955400
00000000
16AFFD00
BFFFFE00
BFFFE800
65000000
ENDCHAR
STARTCHAR greater
ENCODING 62
SWIDTH 634 0
DWIDTH 15 0
BBX 15 12 -1 0
BITMAP
01000000
0BE90000
03FFE400
01FFFE40
001BFFE0
0001FFF8
001BFFF8
06FFFE50
6FFF9000
FFF80000
BF400000
14000000
ENDCHAR
STARTCHAR question
ENCODING 63
SWIDTH 556 0
DWIDTH 13 0
BBX 14 19 1 -1
BITMAP
01A94000
0BFFFE40
2FFFFFE0
3FFFFFE0
1FABFFE0
00007FE0
0002FFD0
001FFF40
00BFF900
02FFD000
07FE0000
0BE00000
06800000
00000000
28000000
BF000000
BF000000
7F000000
24000000
ENDCHAR
STARTCHAR at
ENCODING 64
SWIDTH 732 0
DWIDTH 18 0
BBX 18 19 -1 -1
BITMAP
00001A8000
00002FF400
00003FFD00
0000BFFE00
0007FD2F40
002FE00FC0
00BF81A7E0
03FD1FF3F0
0BF4BFE2F0
2FE7FFD2F0
3F8FE7D2F0
7F1FD7E7E0
3E0FFFFF80
3D07FFFD00
2F80550000
1FF9555400
06FFFFFD00
007FFFFE00
0001559400
ENDCHAR
STARTCHAR A
ENCODING 65
SWIDTH 702 0
DWIDTH 17 0
BBX 18 18 -1 0
BITMAP
0000040000
00001F8000
00007FD000
0005FFE000
001FFFE000
003FFFF000
007FFFF000
00FFDBF400
01FF8BF800
02FF07FE40
07FE6BFFE0
0BFFFFFFD0
1FFBFFFF40
2FE7FFFF00
3FD150FF00
7FC006FF00
3F8003FD00
2E0001F400
ENDCHAR
STARTCHAR B
ENCODING 66
SWIDTH 686 0
DWIDTH 16 0
BBX 17 19 -1 -1
BITMAP
0001594000
01AFFFE000
2FFFFFFD00
BFFFFFFE00
7FFE43FF00
2FBD1FFE00
067FBFFC00
007FFFF000
00BFFFD000
00FFFFF400
01FFEAFD00
02FE003F00
03FD00BF80
07FC0BFF80
0BF9BFFF40
0BFFFFFD00
0BFFFFE000
03FFF90000
0045400000
ENDCHAR
STARTCHAR C
ENCODING 67
SWIDTH 611 0
DWIDTH 15 0
BBX 14 17 0 0
BITMAP
00002F80
0001FFE0
001FFFF0
00BFFFE0
07FFFF80
1FFFE400
3FFF4000
BFF40000
FFD00000
FF400000
FE000000
BE000000
7FA50000
3FFFFF80
1FFFFFD0
03FFFFD0
005BFF40
ENDCHAR
STARTCHAR D
ENCODING 68
SWIDTH 588 0
DWIDTH 14 0
BBX 14 18 0 0
BITMAP
04000000
1F400000
1FF90000
1FFF8000
2FFFF400
2F5BFD00
1F80BF40
1F802FC0
0F8007D0
1F8007E0
2F801FE0
2F81BFD0
3F9BFF80
7FFFFE00
BFFFF400
BFFF8000
7FF40000
2E400000
ENDCHAR
STARTCHAR E
ENCODING 69
SWIDTH 626 0
DWIDTH 15 0
BBX 16 19 0 -1
BITMAP
00000010
0001AFF8
01BFFFFE
0FFFFFFD
1FFFFFA0
0FFFA400
0BF80000
07FEAD00
0BFFFF40
1FFFFF80
2FFFFE00
7FE55000
BF800000
BF405680
BFFFFFF0
7FFFFFF0
7FFFFFD0
1FFFE900
00400000
ENDCHAR
STARTCHAR F
ENCODING 70
SWIDTH 575 0
DWIDTH 14 0
BBX 18 18 -1 0
BITMAP
0000016A00
00016FFFC0
006FFFFFF0
07FFFFFFE0
0BFFFA5000
07FF800000
02FF400000
00BF000000
00FE014000
2FFFBFE000
7FFFFFF000
7FFFFFD000
2FFFA54000
0FF4000000
1FD0000000
1FC0000000
1FC0000000
0B80000000
ENDCHAR
STARTCHAR G
ENCODING 71
SWIDTH 789 0
DWIDTH 19 0
BBX 20 18 0 0
BITMAP
0000014000
00000BE000
00007FF800
0002FFFC00
001FFFF800
007FFF8000
01FFF80000
07FFD01000
1FFE00BD00
2FF801FFD0
7FE000FFF4
FFC000BFFE
FF4001BFFF
BE55BFFFFD
BFFFFFFFF4
7FFFFFFE40
2FFFFF9000
06FE940000
ENDCHAR
STARTCHAR H
ENCODING 72
SWIDTH 695 0
DWIDTH 17 0
BBX 17 19 0 -1
BITMAP
0000002000
0240007800
07C000BC00
0BE000BE00
0BF400FF00
0BF400FF00
0FF401FF40
0FF001FF40
1FF002FF00
1FE05BFE00
2FFBFFFE00
3FFFFFFD00
7FFFFFFC00
BFFF9FF400
BFF40FF400
FFD00FF400
BF800BF000
7F00039000
0400000000
ENDCHAR
STARTCHAR I
ENCODING 73
SWIDTH 515 0
DWIDTH 12 0
BBX 17 19 -1 -1
BITMAP
0001555000
00BFFFFE00
01FFFFFF40
00FFFFFE40
00BAFE4000
0002FC0000
0002FC0000
0003F80000
0007F40000
000BF00000
000FE00000
001FD00000
003FC00000
007F800000
5AFFF80000
BFFFFE0000
BFFFFD0000
7FA6500000
1000000000
ENDCHAR
STARTCHAR J
ENCODING 74
SWIDTH 668 0
DWIDTH 16 0
BBX 20 17 -1 0
BITMAP
005AAFFFF8
07FFFFFFFE
07FFFFFFFF
07FFFFFEAE
01E507F800
00000BF400
00000BF000
00000FF000
00001FE000
00002FD000
00003FC000
00007F8000
2901FF4000
7FFFFF0000
7FFFFD0000
3FFFF40000
05AE900000
ENDCHAR
STARTCHAR K
ENCODING 75
SWIDTH 776 0
DWIDTH 19 0
BBX 19 19 0 -1
BITMAP
0010000000
007E000100
00BF801B80
01FF80BFE0
02FF47FFF0
03FE1FFFD0
07FDBFFE00
0BFFFFE400
0FFFFF8000
1FFFFD0000
2FFFF80000
3FFFFD0000
3FFFFF9550
BFFDBFFFF8
BFF01FFFFC
7FD006FFF8
3F80006A90
2E00000000
0400000000
ENDCHAR
STARTCHAR L
ENCODING 76
SWIDTH 632 0
DWIDTH 15 0
BBX 15 19 0 -1
BITMAP
00500000
00FD0000
01FF0000
02FF0000
03FE0000
07FD0000
0BFC0000
0FF80000
1FF00000
2FE00000
3FD00000
7FC00000
BF800000
BF9AAE40
BFFFFFE4
7FFFFFF4
3FFFFFF8
1FF95550
01400000
ENDCHAR
STARTCHAR M
ENCODING 77
SWIDTH 973 0
DWIDTH 23 0
BBX 23 19 0 -1
BITMAP
000200000000
000F90000390
002FF4000BF0
007FFC002FF8
00FFFC00BFFC
01FFFC02FFF8
03FFFC1FFFF8
07FFFFFFFFF4
0BFFFFFFFFF4
1FFFFFFFDFF4
2FF7FFFE0FF0
3FE1FFE41FF0
7FD019402FF0
BFC000002FE0
FF8000002FD0
BF0000002FC0
7E0000001F40
3D0000000900
140000000000
ENDCHAR
STARTCHAR N
ENCODING 78
SWIDTH 684 0
DWIDTH 16 0
BBX 18 18 -1 0
BITMAP
0000000400
000B400B40
000FE00FD0
002FF42FF0
003FF42FE0
00BFF43FD0
00FFF03FC0
01FFE07F80
03FFE0BF80
07FFE0FF40
0FFFE2FF40
1FFFE7FF00
3FFFFFFE00
7FF7FFFD00
3FE1FFF800
2FD0BFF400
1FC01FD000
0B40050000
ENDCHAR
STARTCHAR O
ENCODING 79
SWIDTH 744 0
DWIDTH 18 0
BBX 17 19 0 -1
BITMAP
0000064000
00002FD000
0000FFF000
0007FFF000
001FFFF000
00BFFFF400
01FFFBF800
07FF41FD00
0FFD00FF00
2FF4007F40
3FD0003F80
7F80003FC0
BF4001BFC0
BF405BFF80
BFFFFFFF40
7FFFFFFD00
2FFFFFE000
07FFE90000
0005000000
ENDCHAR
STARTCHAR P
ENCODING 80
SWIDTH 639 0
DWIDTH 15 0
BBX 15 19 1 -1
BITMAP
00059500
002FFF80
00FFFFE0
02FFFFF4
03FFFFF8
0BF917FC
1FF01BFC
7FE6FFFC
BFFFFFF8
FFFFFFE0
FFFFFE40
BFFFA400
7F940000
BF800000
BF400000
FF400000
FF000000
7E000000
10000000
ENDCHAR
STARTCHAR Q
ENCODING 81
SWIDTH 744 0
DWIDTH 18 0
BBX 18 20 0 -2
BITMAP
0000150000
00007FD000
0000BFF400
0001FFF800
0007FFFD00
002FFFFF00
00BFF87F40
07FFD02FC0
1FFE001FD0
3FF8A81FD0
BFE0FF2FD0
FF807FFFC0
FF002FFF80
FD01BFFF00
FEBFFFFC00
BFFFFFFD00
7FFFFEFE00
0BFF90BF00
0050007E00
0000001400
ENDCHAR
STARTCHAR R
ENCODING 82
SWIDTH 646 0
DWIDTH 16 0
BBX 16 19 0 -1
BITMAP
00005000
0002F800
000BFE00
002FFF80
007FFFD0
0AFF7FE0
0FFD1FF0
0FF81FF0
1FF6FFF0
2FFFFFD0
3FFFFF40
3FFFE400
7FFE0000
7FFF8000
BFFFFA40
BF6FFFFC
7F07FFFD
2D006FFD
000005A8
ENDCHAR
STARTCHAR S
ENCODING 83
SWIDTH 576 0
DWIDTH 14 0
BBX 17 19 0 -1
BITMAP
0000055400
0006FFFD00
01BFFFFE00
1BFFFFFF40
7FFFFBAA00
BFFD000000
BFFF400000
BFFFF00000
2FFFF40000
005BFD0000
00007E0000
00007F0000
0001FF0000
001BFD0000
1AFFF80000
2FFFE00000
2FFF800000
1FF8000000
0500000000
ENDCHAR
STARTCHAR T
ENCODING 84
SWIDTH 607 0
DWIDTH 15 0
BBX 19 19 0 -1
BITMAP
0000405640
155AFFFFE0
FFFFFFFFF8
FFFFFFFFF4
BFFFFEA540
2AABF80000
000FF40000
001FE00000
003FD00000
007FC00000
00BF800000
00FF000000
01FE000000
01FD000000
02FC000000
01F8000000
00FE000000
00BE000000
0014000000
ENDCHAR
STARTCHAR U
ENCODING 85
SWIDTH 695 0
DWIDTH 17 0
BBX 17 18 1 0
BITMAP
0000001000
0000003C00
0400003D00
2D00007E00
3F0000BF00
7F4000BF40
7F8000FF00
BF8002FF00
BF4003FE00
BF400BFC00
BF402FF800
BF41FFF000
BFAFFF8000
BFFFFF0000
3FFFFD0000
2FFFF40000
1FFF800000
06A8000000
ENDCHAR
STARTCHAR V
ENCODING 86
SWIDTH 583 0
DWIDTH 14 0
BBX 15 18 1 0
BITMAP
00000050
3C0002F4
7E0007F8
7F001FF8
7F803FF4
7F80BFE0
7FC1FF80
7FC3FF00
7FCBFC00
3FEFF400
3FFFE000
2FFFD000
2FFF4000
1FFF0000
1FFD0000
0FF80000
0BF40000
02E00000
ENDCHAR
STARTCHAR W
ENCODING 87
SWIDTH 994 0
DWIDTH 24 0
BBX 25 18 0 0
BITMAP
00000000000400
00A00000001E00
01F80024002F40
03FD007D007F80
07FC00FF00BFC0
0BFC02FF00FF80
0FF807FF01FF40
1FF40FFE02FE00
2FF02FFE07FD00
2FE07FFD0BFC00
3FD0FFFC1FF400
7FC2FFFD7FF000
7FCBFFFEFFE000
7FFFFEBFFFC000
3FFFF87FFF4000
2FFFD02FFE0000
0FFF400FF80000
02A40007E00000
ENDCHAR
STARTCHAR X
ENCODING 88
SWIDTH 623 0
DWIDTH 15 0
BBX 18 18 -1 -1
BITMAP
02D0000640
03F8002F80
03FE01FFD0
03FF8BFFC0
01FFFFFE40
00BFFFF400
002FFFD000
001FFE0000
007FFC0000
01FFFE0000
07FFFF4000
0FFEBFC000
2FF83FE000
3FE01FF000
7F800BF400
7F0007F000
3E0002E000
1800000000
ENDCHAR
STARTCHAR Y
ENCODING 89
SWIDTH 493 0
DWIDTH 12 0
BBX 14 19 1 -1
BITMAP
10000600
BD002F80
BF00BFD0
7F42FFC0
7F87FF40
7F8FFD00
3FEFF400
2FFFE000
1FFFC000
0FFF4000
07FE0000
0BFC0000
1FF40000
2FF00000
7FD00000
BF800000
FF400000
BE000000
18000000
ENDCHAR
STARTCHAR Z
ENCODING 90
SWIDTH 664 0
DWIDTH 16 0
BBX 18 19 -1 -1
BITMAP
0001400000
007FFFFF80
007FFFFFD0
007FFFFFE0
002FEBFFD0
00000BFF80
00002FFD00
0001FFF400
000BFFD000
007FFF0000
02FFF80000
0BFFD00000
2FFE001000
3FF406FC00
7FF5BFFF00
7FFFFFFE00
2FFFFFE400
1FFFE90000
06F9400000
ENDCHAR
STARTCHAR bracketleft
ENCODING 91
SWIDTH 387 0
DWIDTH 9 0
BBX 18 26 -1 -4
BITMAP
00005AA940
001FFFFFD0
001FFFFFF0
001FFFFE90
001FD00000
002FC00000
003F800000
003F400000
007F000000
00BF000000
00FE000000
01FD000000
01FC000000
02FC000000
03F8000000
07F4000000
0BF4000000
0FF0000000
1FE0000000
1FD0000000
2FC0000000
3F85500000
7FFFF80000
BFFFFD0000
7FFFF80000
3A55000000
ENDCHAR
STARTCHAR backslash
ENCODING 92
SWIDTH 352 0
DWIDTH 8 0
BBX 6 19 1 -1
BITMAP
6000
B800
7E00
7E00
3F00
3F00
2F40
2F40
1F40
1F80
0FC0
0BC0
0BD0
0BD0
07D0
07E0
07F0
03E0
0150
ENDCHAR
STARTCHAR bracketright
ENCODING 93
SWIDTH 403 0
DWIDTH 10 0
BBX 17 26 -7 -4
BITMAP
00016AA900
000FFFFF40
000FFFFFC0
000BFFFF80
0001403F80
0000007F40
0000007F00
000000BE00
000000FE00
000001FD00
000002FC00
000002F800
000003F800
000007F400
00000BF000
00000FE000
00001FE000
00002FD000
00002FC000
00003F8000
00007F4000
0005BF0000
6AFFFE0000
BFFFFD0000
7FFFF80000
3A55000000
ENDCHAR
STARTCHAR asciicircum
ENCODING 94
SWIDTH 518 0
DWIDTH 12 0
BBX 11 14 0 4
BITMAP
000280
0007E0
000BF0
002FF0
003FF4
00BFF4
01FFF8
03F9F8
0BF1F8
2FD1F8
7F80FC
FF00BC
BD003C
640014
ENDCHAR
STARTCHAR underscore
ENCODING 95
SWIDTH 708 0
DWIDTH 17 0
BBX 20 4 -3 -1
BITMAP
1AAFFFFA90
7FFFFFFFFD
3FFFFFFFFE
0AA5555540
ENDCHAR
STARTCHAR grave
ENCODING 96
SWIDTH 754 0
DWIDTH 18 0
BBX 7 8 7 10
BITMAP
2400
BE00
FF80
BFE0
1FF8
07FC
00B8
0010
ENDCHAR
STARTCHAR a
ENCODING 97
SWIDTH 581 0
DWIDTH 14 0
BBX 15 15 -1 -1
BITMAP
0000F800
0002FD00
002FFD00
00BFFE00
00FFFF00
02FE7F00
03FC3F40
07F47FF4
0FFFFFF8
1FFFFFE0
2F9FEFD0
7F400FD0
7F003FD0
3E001F40
04000400
ENDCHAR
STARTCHAR b
ENCODING 98
SWIDTH 573 0
DWIDTH 14 0
BBX 14 16 -1 -1
BITMAP
00055400
06FFFE00
7FFFFFC0
BFFA6FD0
3FE07FD0
09FAFF80
01FFFE00
01FFFD00
02FFFF40
03F907D0
07F00BF0
0BE0BFF0
0FEBFFD0
0FFFFF40
0BFFE400
01190000
ENDCHAR
STARTCHAR c
ENCODING 99
SWIDTH 513 0
DWIDTH 12 0
BBX 12 15 0 0
BITMAP
000010
0001F8
001FFE
01BFFE
07FFF8
1FFE40
7FF800
BF8000
FE0000
FC0000
BC0000
7F9550
3FFFF8
1BFFFD
01BFF4
ENDCHAR
STARTCHAR d
ENCODING 100
SWIDTH 497 0
DWIDTH 12 0
BBX 12 14 0 0
BITMAP
2E4000
2FF800
2FFF40
2EBFD0
2F06F4
1F00BC
1F003D
2F007E
3F06FD
3F6FF8
7FFFE0
BFFF40
7FF400
3E4000
ENDCHAR
STARTCHAR e
ENCODING 101
SWIDTH 521 0
DWIDTH 13 0
BBX 13 16 0 -1
BITMAP
00000400
001AFF80
06FFFFC0
1FFFFE40
1FFF9000
0FE00000
0BFBE000
1FFFF800
2FFFF400
7FAA4000
BF000000
BE15A800
BFFFFE00
7FFFFD00
2FFFE400
01500000
ENDCHAR
STARTCHAR f
ENCODING 102
SWIDTH 455 0
DWIDTH 11 0
BBX 15 16 -1 -1
BITMAP
00001690
0006FFF4
01BFFFFC
0FFFFA54
0BFE4000
03FC0000
01F80000
16F96800
7FFFFE00
7FFFFD00
3FFE9400
1FC00000
2F800000
2F400000
0F000000
01000000
ENDCHAR
STARTCHAR g
ENCODING 103
SWIDTH 652 0
DWIDTH 16 0
BBX 17 15 0 0
BITMAP
0000140000
00007E0000
0007FF4000
002FFF4000
00BFF90000
02FF900000
0FFE010000
2FF41FD000
7FD00FFC00
BF400BFF40
FE001BFF80
BD5BFFFF00
7FFFFFF800
3FFFFE4000
1BFE900000
ENDCHAR
STARTCHAR h
ENCODING 104
SWIDTH 582 0
DWIDTH 14 0
BBX 14 16 0 -1
BITMAP
00000100
06000B00
0B400B80
0FC00FD0
1FD00FD0
1FD01FD0
1FC01FD0
2FC02FD0
2F9BFFC0
7FFFFFC0
7FFFFF40
BFF9BF00
FF90BF00
FF00BF00
BD003D00
14000000
ENDCHAR
STARTCHAR i
ENCODING 105
SWIDTH 320 0
DWIDTH 8 0
BBX 6 16 1 -1
BITMAP
0100
0740
0FC0
1FC0
1FD0
2FC0
3F80
3F40
7F40
7F00
BF00
BF00
7F00
3F00
2E00
0400
ENDCHAR
STARTCHAR j
ENCODING 106
SWIDTH 534 0
DWIDTH 13 0
BBX 17 14 -1 0
BITMAP
01AAFFFE00
0BFFFFFF80
0BFFFFFF80
07E57F4000
00003F0000
00007F0000
0000BE0000
0000FD0000
0001FC0000
0002F80000
290BF40000
7FFFF00000
7FFFD00000
1AFE400000
ENDCHAR
STARTCHAR k
ENCODING 107
SWIDTH 645 0
DWIDTH 16 0
BBX 16 16 0 -1
BITMAP
00100000
00F80050
02FD02F4
03FC1FFC
07F8BFF8
0BF7FFD0
0FFFFE00
1FFFF400
2FFFD000
3FFFD000
7FFFF954
BFE2FFFE
BFC0BFFE
7F401BFD
3D000000
04000000
ENDCHAR
STARTCHAR l
ENCODING 108
SWIDTH 533 0
DWIDTH 13 0
BBX 13 16 0 -1
BITMAP
00400000
02F40000
03FC0000
07F80000
0BF40000
0FE00000
1FD00000
2FC00000
3F800000
7F400000
BF000000
BF6BF400
BFFFFF00
7FFFFF40
2FFA6900
05400000
ENDCHAR
STARTCHAR m
ENCODING 109
SWIDTH 814 0
DWIDTH 20 0
BBX 20 16 0 -1
BITMAP
0014000000
003E0001E0
00BF8003F8
01FFD00FFD
03FFD07FFC
07FFD1FFFC
0FFFFFFFF8
1FFFFFFFF8
2FEFFFE3F8
3FCBFF47F4
BF81A407F4
BF40000BF0
BE00000BE0
BD000007D0
7800000240
1000000000
ENDCHAR
STARTCHAR n
ENCODING 110
SWIDTH 564 0
DWIDTH 14 0
BBX 15 15 -1 0
BITMAP
00000040
002D00E0
003F41F8
00BF82FC
00FF83F8
02FF43F4
03FF07F0
0BFF0BF0
0FFF0FE0
1FFF6FE0
3FFFFFD0
7FDFFFC0
3F87FF40
2F41FE00
0E006400
ENDCHAR
STARTCHAR o
ENCODING 111
SWIDTH 628 0
DWIDTH 15 0
BBX 15 16 0 -1
BITMAP
00002400
0002FD00
000BFF00
002FFE00
00BFFF00
03FFFF40
0BF81FC0
2FE00BD0
3F8003E0
7F4003F0
BE000BF4
BE45BFF0
BFFFFFD0
3FFFFF40
1BFFE400
01540000
ENDCHAR
STARTCHAR p
ENCODING 112
SWIDTH 524 0
DWIDTH 13 0
BBX 14 16 0 -1
BITMAP
00055000
007FFE00
01FFFF40
02FFFFC0
03F96FC0
0BE01FD0
2FEBFFD0
3FFFFF80
7FFFFE00
3FFF9000
2F940000
3F800000
3F400000
7F400000
3F000000
14000000
ENDCHAR
STARTCHAR q
ENCODING 113
SWIDTH 625 0
DWIDTH 15 0
BBX 15 17 0 -2
BITMAP
00015000
0003FC00
0007FF00
001FFF40
007FFFC0
02FF8BE0
0BFD03F0
2FF401F4
7FC7E2F4
FF43FBF4
FD01FFF0
FC1BFFD0
FFFFFF80
BFFFFFC0
2FFE4FD0
014007C0
00000140
ENDCHAR
STARTCHAR r
ENCODING 114
SWIDTH 541 0
DWIDTH 13 0
BBX 13 16 0 -1
BITMAP
00010000
001FD000
003FF400
00BFFC00
0AFEFD00
1FF4BE00
1FD1BE00
2FEFFE00
3FFFF800
3FFF9000
7FF80000
7FFE0000
BFFFF940
BD7FFFC0
7C06FFC0
00006A40
ENDCHAR
STARTCHAR s
ENCODING 115
SWIDTH 463 0
DWIDTH 11 0
BBX 14 16 0 -1
BITMAP
00005500
001BFF80
06FFFFD0
2FFFFFE0
BFF90040
BFF90000
BFFF4000
1AFFC000
0007E000
0002F000
0007F000
007FE000
2FFF8000
2FFE0000
2FE40000
05000000
ENDCHAR
STARTCHAR t
ENCODING 116
SWIDTH 479 0
DWIDTH 12 0
BBX 16 16 0 -1
BITMAP
00000550
56AFFFFC
FFFFFFFE
BFFFFFA8
7FBFC000
003F8000
007F0000
00BE0000
01FD0000
02F80000
03F40000
03F00000
03E00000
03F00000
01F80000
00500000
ENDCHAR
STARTCHAR u
ENCODING 117
SWIDTH 584 0
DWIDTH 14 0
BBX 14 15 1 0
BITMAP
00000100
00000380
140007C0
3D000BD0
7E000BE0
7F000FD0
BF001FD0
BE003FC0
BE00FF40
BE07FE00
BF6FF800
7FFFF000
3FFFD000
2FFE4000
0BE40000
ENDCHAR
STARTCHAR v
ENCODING 118
SWIDTH 485 0
DWIDTH 12 0
BBX 13 16 1 -1
BITMAP
10000500
78002F00
7D007F40
7E01FF00
7F03FE00
7F0BF800
7F5FF000
7F6FD000
3FFF4000
3FFF0000
2FFD0000
2FF80000
1FF00000
0FD00000
07C00000
01000000
ENDCHAR
STARTCHAR w
ENCODING 119
SWIDTH 825 0
DWIDTH 20 0
BBX 21 16 0 -1
BITMAP
000000000400
01D000000F00
03F002401F80
0BF00BD02FC0
0FF01FE03F80
1FE03FD0BF40
2FD0BFD0FF00
2FC1FFC1FD00
3F82FF83FC00
7F4BFF8BF800
7F6FFFEFF000
7FFFEBFFE000
3FFF83FFC000
2FFD02FF4000
07E000BD0000
000000100000
ENDCHAR
STARTCHAR x
ENCODING 120
SWIDTH 506 0
DWIDTH 12 0
BBX 15 15 -1 -1
BITMAP
078000A0
07F007F4
07FC2FF8
03FEFFE0
01FFFF40
007FF800
007FE000
01FFE000
07FFF400
1FFBFC00
3FD1FE00
7F80BF00
7E007F00
3D002E00
18000400
ENDCHAR
STARTCHAR y
ENCODING 121
SWIDTH 400 0
DWIDTH 10 0
BBX 11 16 1 -1
BITMAP
100060
B801F8
BE07FC
7E1FF8
7F2FE0
3FBF80
3FFF00
2FFD00
0FF800
0FF000
2FD000
3F8000
BF4000
FE0000
BD0000
280000
ENDCHAR
STARTCHAR z
ENCODING 122
SWIDTH 547 0
DWIDTH 13 0
BBX 15 16 -1 -1
BITMAP
00050000
00FFFFF0
00FFFFF8
00BFFFF8
00147FF4
0001FF80
0007FE00
007FF800
01FFE000
0BFF4000
2FF80100
3FD06F80
7FEBFFD0
3FFFFF80
1FFFE400
06E90000
ENDCHAR
STARTCHAR braceleft
ENCODING 123
SWIDTH 448 0
DWIDTH 11 0
BBX 19 26 0 -4
BITMAP
000016AA50
0003FFFFF4
0003FFFFFC
0003FFFFA4
0007F40000
0007F00000
000BE00000
000FE00000
001FD00000
00BFC00000
1BFF800000
7FFD000000
7FE0000000
3FF8000000
1FFE000000
02FE000000
01FD000000
02FC000000
03F8000000
07F4000000
0BF0000000
0FE1540000
1FFFFE0000
1FFFFF4000
1FFFFE0000
0B94400000
ENDCHAR
STARTCHAR bar
ENCODING 124
SWIDTH 332 0
DWIDTH 8 0
BBX 8 19 0 -1
BITMAP
0008
002D
003E
007F
00BE
00FD
01F8
02F4
03F0
07E0
0BD0
0FC0
1FC0
2F80
7F00
BE00
FD00
BC00
1000
ENDCHAR
STARTCHAR braceright
ENCODING 125
SWIDTH 481 0
DWIDTH 12 0
BBX 18 26 -7 -4
BITMAP
00016AA900
001FFFFF40
001FFFFF80
000FFFFF40
0005407F40
0000007F00
000000BE00
000000FE00
000001FD00
000002FC00
000003FC00
000007FF40
000002FFD0
0000003FF0
000001FFF0
00000BFF90
00001FF900
00002FD000
00003F8000
00007F4000
0000BF0000
0005FE0000
6BFFFD0000
FFFFFC0000
BFFFF40000
7A54000000
ENDCHAR
STARTCHAR asciitilde
ENCODING 126
SWIDTH 581 0
DWIDTH 14 0
BBX 13 5 0 5
BITMAP
01940140
1FFE1FC0
3FFFBF40
BE2FFE00
A80BF400
ENDCHAR
STARTCHAR uni00A0
ENCODING 160
SWIDTH 370 0
DWIDTH 9 0
BBX 1 1 0 0
BITMAP
00
ENDCHAR
STARTCHAR exclamdown
ENCODING 161
SWIDTH 260 0
DWIDTH 6 0
BBX 6 19 0 -1
BITMAP
0280
0BE0
0FF0
0FE0
0140
0000
0A00
2F80
3F80
3F40
7F40
7F00
BE00
BE00
FD00
FD00
FC00
B800
5000
ENDCHAR
STARTCHAR cent
ENCODING 162
SWIDTH 488 0
DWIDTH 12 0
BBX 11 19 0 -1
BITMAP
000100
000780
000BC0
000FE0
001FFC
01BFFC
07FFE4
1FFD00
7FE000
BF4000
BD0000
BC0000
7FA950
2FFFF4
07FFF4
07F550
0BE000
0BD000
014000
ENDCHAR
STARTCHAR sterling
ENCODING 163
SWIDTH 586 0
DWIDTH 14 0
BBX 14 15 0 1
BITMAP
00016400
000BFFD0
003FFFF0
00BFABE0
00FE0000
01FE5000
7FFFF800
7FFFFD00
3FFA9400
07F00000
0BE01900
BFFFFF00
FFFFFF40
7FFFF900
05500000
ENDCHAR
STARTCHAR currency
ENCODING 164
SWIDTH 509 0
DWIDTH 12 0
BBX 12 13 0 0
BITMAP
0A0A18
0FBFBE
0FFFFE
0BFFF8
0FFFE0
2FD7F0
3F47F4
7FFFF4
7FFFE0
BFFFE0
BD53E0
B401D0
100000
ENDCHAR
STARTCHAR yen
ENCODING 165
SWIDTH 563 0
DWIDTH 14 0
BBX 14 15 0 0
BITMAP
03800780
03F01FE0
03F07FD0
03F4FF40
02FAFE00
02FFF800
01FFF400
6FFFFE00
BFFFFF80
7FFFFA40
15FE0000
02FC0000
07F80000
07F00000
02D00000
ENDCHAR
STARTCHAR brokenbar
ENCODING 166
SWIDTH 301 0
DWIDTH 7 0
BBX 9 19 -1 -1
BITMAP
000500
000F00
001F40
002F80
003F40
007F00
00BD00
00FC00
007400
000000
000000
078000
0BD000
0FD000
2F8000
3F4000
7F0000
7E0000
040000
ENDCHAR
STARTCHAR section
ENCODING 167
SWIDTH 630 0
DWIDTH 15 0
BBX 15 22 0 -3
BITMAP
0001ABD0
01BFFFF4
0BFFFFF8
0BFFFAF4
0FFD0000
0BFF4000
07FFF800
02FFFF40
0FFFFFC0
2FFFBFF0
3FD00BF0
2FE5BFF0
1FFFFFD0
07FFFF40
01BFFF00
001BFF80
0001FFC0
196BFFC0
7FFFFFC0
7FFFFE40
2FFE9000
05400000
ENDCHAR
STARTCHAR dieresis
ENCODING 168
SWIDTH 754 0
DWIDTH 18 0
BBX 11 5 5 13
BITMAP
180150
7E03F4
BF47F8
7E02E0
140040
ENDCHAR
STARTCHAR copyright
ENCODING 169
SWIDTH 614 0
DWIDTH 15 0
BBX 15 16 0 2
BITMAP
00005000
002BF900
00BF9B40
02F802D0
0BD07DF0
1F8BFCF4
2F2F90B8
3DBD00B8
7CB000B8
7CA000F4
7CBF91F0
3D2FE7E0
2E015F80
0B95FE00
01FFF400
00154000
ENDCHAR
STARTCHAR ordfeminine
ENCODING 170
SWIDTH 454 0
DWIDTH 11 0
BBX 11 11 0 5
BITMAP
000400
003F40
02FF40
07FF80
0FFF80
1FEFE0
3FFFF8
7FFFF4
BEFFE0
FD1FE0
780B80
ENDCHAR
STARTCHAR guillemotleft
ENCODING 171
SWIDTH 566 0
DWIDTH 14 0
BBX 13 11 0 -1
BITMAP
007C0780
01FC1FC0
07F8BF40
6FE7FD00
FF5FF400
FD1FC000
BF4FE000
3FC7FC00
0BE0BD00
01F02E00
00100100
ENDCHAR
STARTCHAR logicalnot
ENCODING 172
SWIDTH 698 0
DWIDTH 17 0
BBX 15 8 0 0
BITMAP
6BFFFFE0
BFFFFFF8
BFFFFFFC
195002F8
000007F4
00000BF0
00000BD0
00000780
ENDCHAR
STARTCHAR sfthyphen
ENCODING 173
SWIDTH 608 0
DWIDTH 15 0
BBX 13 4 0 4
BITMAP
2BFFFE00
7FFFFF80
3FFFFE40
19400000
ENDCHAR
STARTCHAR registered
ENCODING 174
SWIDTH 624 0
DWIDTH 15 0
BBX 15 16 0 2
BITMAP
00005000
001BFD00
00BFEB80
02F912E0
07E1F8F0
0F87FDB4
2F1F6E78
3E2EBD78
3D3FF478
7C7F40B8
7DBFE5F4
3E76FFE0
1F102FC0
0B95BE00
01FFF400
00154000
ENDCHAR
STARTCHAR macron
ENCODING 175
SWIDTH 754 0
DWIDTH 18 0
BBX 9 4 6 14
BITMAP
16AA00
BFFF80
BFFF40
695500
ENDCHAR
STARTCHAR degree
ENCODING 176
SWIDTH 284 0
DWIDTH 7 0
BBX 7 8 2 12
BITMAP
0040
02E0
0FF0
3FF4
BDBC
FEFC
FFF8
7F90
ENDCHAR
STARTCHAR plusminus
ENCODING 177
SWIDTH 559 0
DWIDTH 13 0
BBX 15 18 -1 -1
BITMAP
00005000
0001F000
0002F800
0003F800
0007F800
06AFFF90
0FFFFFF4
0BFFFFE4
02AFE400
001FD000
002FC000
002F8000
000A0000
00555000
7FFFFE00
BFFFFF80
7FFFEA00
15000000
ENDCHAR
STARTCHAR twosuperior
ENCODING 178
SWIDTH 386 0
DWIDTH 9 0
BBX 10 9 1 8
BITMAP
2FF800
7FFE00
2FFF00
02FE00
1FF800
3FEA80
7FFFD0
3FFF80
1A5000
ENDCHAR
STARTCHAR threesuperior
ENCODING 179
SWIDTH 366 0
DWIDTH 9 0
BBX 9 9 1 8
BITMAP
1BFD00
7FFF00
7FFF00
1BFC00
07FE00
01BF40
0FFF40
0FFE00
069000
ENDCHAR
STARTCHAR acute
ENCODING 180
SWIDTH 754 0
DWIDTH 18 0
BBX 7 8 7 10
BITMAP
0060
02F8
0BFC
2FF8
BFD0
FF40
B800
1000
ENDCHAR
STARTCHAR mu
ENCODING 181
SWIDTH 569 0
DWIDTH 14 0
BBX 15 16 -1 -3
BITMAP
00000090
010000E0
038001F0
07D002F4
07E003F4
0BE007F0
0BD00FE0
0FD03FC0
1FE1FF40
1FFFFD00
2FFFF800
3FFFE000
3FBE0000
7F000000
7E000000
14000000
ENDCHAR
STARTCHAR paragraph
ENCODING 182
SWIDTH 729 0
DWIDTH 18 0
BBX 18 19 1 -1
BITMAP
000016BE40
006FFFFFD0
07FFFFFFF0
2FFFFFFF90
7FFFFCBE00
BFE6F8FD00
7F83F8FC00
3F83F5FC00
2FFFF6F800
0BFFFAF800
01BFFFF800
001FFFFD00
001FDBF800
001FCFE000
001F8FD000
002F4FE000
003F4BF000
003F07F000
0005019000
ENDCHAR
STARTCHAR periodcentered
ENCODING 183
SWIDTH 226 0
DWIDTH 5 0
BBX 4 4 1 7
BITMAP
68
BE
FF
BD
ENDCHAR
STARTCHAR cedilla
ENCODING 184
SWIDTH 754 0
DWIDTH 18 0
BBX 9 10 6 -8
BITMAP
004000
03E000
0FC000
0FE400
0BFD00
017F40
006F80
BFFF40
3FF900
054000
ENDCHAR
STARTCHAR onesuperior
ENCODING 185
SWIDTH 206 0
DWIDTH 5 0
BBX 5 9 1 8
BITMAP
2D00
2F00
2F40
1F40
2F40
3F00
7E00
7D00
2800
ENDCHAR
STARTCHAR ordmasculine
ENCODING 186
SWIDTH 445 0
DWIDTH 11 0
BBX 11 12 0 4
BITMAP
000900
007F40
01FFC0
07FFC0
1FFFD0
3FEBF0
7F47F4
BF6FF4
BFFFF4
7FFFD0
2FFE00
004000
ENDCHAR
STARTCHAR guillemotright
ENCODING 187
SWIDTH 595 0
DWIDTH 14 0
BBX 14 11 -1 -1
BITMAP
1E01E000
0FD0FD00
0BF4BF40
02FD2FD0
00BE0BE0
02FE1FE0
0BF9BF90
2FD2FD00
7E07E000
78078000
10010000
ENDCHAR
STARTCHAR onequarter
ENCODING 188
SWIDTH 705 0
DWIDTH 17 0
BBX 16 19 0 -1
BITMAP
00000080
0B4003C0
0FC00BD0
0BC02FC0
0BC07F80
0FC0FE00
1F82F800
2F4BF000
2F1FD010
097F90B8
00FEB8FC
03F8BCFD
0BF0BFFF
2FD07FFE
3F402FF4
7F0007D0
7F0007D0
3E0007E0
04000140
ENDCHAR
STARTCHAR onehalf
ENCODING 189
SWIDTH 750 0
DWIDTH 18 0
BBX 17 19 0 -1
BITMAP
0000008000
0B4003C000
0FC00BD000
0BC02FC000
0BC07F8000
0FC0FE0000
1F82F80000
2F4BF00000
2F1FD00000
097F5A9000
00FE7FF800
03F87FFD00
0BF016FD00
2FD00BF800
3F402FD500
7F007FFF80
7F007FFF80
3E002FE500
0400000000
ENDCHAR
STARTCHAR threequarters
ENCODING 190
SWIDTH 818 0
DWIDTH 20 0
BBX 18 19 1 -1
BITMAP
0554000100
2FFE000F00
7FFF403F00
2FFE00BF00
0FF802FD00
0BFD0BF400
2AFE2FD000
3FFDBF4000
7FE6FD0100
0007F50B40
002FDB4F80
00BF4F9F80
02FD0FFFD0
0BF40FFFD0
0FD007FD00
1F8001F800
2F8001F400
2F0001F800
0400005000
ENDCHAR
STARTCHAR questiondown
ENCODING 191
SWIDTH 556 0
DWIDTH 13 0
BBX 14 19 -2 -1
BITMAP
00000080
00000BE0
00000BF0
00000BF0
00000190
00000000
00001900
00007F40
0006FF00
002FFD00
01FFF400
0BFF8000
2FFD0000
3FE00000
7FFA9B80
7FFFFFD0
7FFFFFC0
1BFFFF40
005AA900
ENDCHAR
STARTCHAR Agrave
ENCODING 192
SWIDTH 702 0
DWIDTH 17 0
BBX 18 25 -1 0
BITMAP
0000240000
0000BE0000
0000FF8000
0000BFE000
00001FF800
000007FC00
000000B800
0000041000
00001F8000
00007FD000
0005FFE000
001FFFE000
003FFFF000
007FFFF000
00FFDBF400
01FF8BF800
02FF07FE40
07FE6BFFE0
0BFFFFFFD0
1FFBFFFF40
2FE7FFFF00
3FD150FF00
7FC006FF00
3F8003FD00
2E0001F400
ENDCHAR
STARTCHAR Aacute
ENCODING 193
SWIDTH 702 0
DWIDTH 17 0
BBX 18 26 -1 0
BITMAP
0000006000
000001FC00
000007FD00
00001FF800
00007FD000
0000BF4000
0000B90000
0000100000
0000040000
00001F8000
00007FD000
0005FFE000
001FFFE000
003FFFF000
007FFFF000
00FFDBF400
01FF8BF800
02FF07FE40
07FE6BFFE0
0BFFFFFFD0
1FFBFFFF40
2FE7FFFF00
3FD150FF00
7FC006FF00
3F8003FD00
2E0001F400
ENDCHAR
STARTCHAR Acircumflex
ENCODING 194
SWIDTH 702 0
DWIDTH 17 0
BBX 18 25 -1 0
BITMAP
0000064000
00001FD000
0000BFF800
0002FEFE00
0007F8BF40
0003E02F00
0001400500
0000040000
00001F8000
00007FD000
0005FFE000
001FFFE000
003FFFF000
007FFFF000
00FFDBF400
01FF8BF800
02FF07FE40
07FE6BFFE0
0BFFFFFFD0
1FFBFFFF40
2FE7FFFF00
3FD150FF00
7FC006FF00
3F8003FD00
2E0001F400
ENDCHAR
STARTCHAR Atilde
ENCODING 195
SWIDTH 702 0
DWIDTH 17 0
BBX 19 23 -1 0
BITMAP
00002F91B4
0000BFF7F4
0001FFFFE0
0003F5FFC0
0001506900
0000040000
00001F8000
00007FD000
0005FFE000
001FFFE000
003FFFF000
007FFFF000
00FFDBF400
01FF8BF800
02FF07FE40
07FE6BFFE0
0BFFFFFFD0
1FFBFFFF40
2FE7FFFF00
3FD150FF00
7FC006FF00
3F8003FD00
2E0001F400
ENDCHAR
STARTCHAR Adieresis
ENCODING 196
SWIDTH 702 0
DWIDTH 17 0
BBX 18 23 -1 0
BITMAP
0001501500
0003F43F80
0007F83FC0
0007F02F40
0001400400
0000040000
00001F8000
00007FD000
0005FFE000
001FFFE000
003FFFF000
007FFFF000
00FFDBF400
01FF8BF800
02FF07FE40
07FE6BFFE0
0BFFFFFFD0
1FFBFFFF40
2FE7FFFF00
3FD150FF00
7FC006FF00
3F8003FD00
2E0001F400
ENDCHAR
STARTCHAR Aring
ENCODING 197
SWIDTH 702 0
DWIDTH 17 0
BBX 18 23 -1 0
BITMAP
000000B400
000002F400
00000FFC00
00002FBD00
00003EBE00
00007FFE00
00003FF800
00007FD000
0006FFE000
001FFFE000
003FFFF000
007FFFF000
00FFDBF400
01FF8BF800
02FF07FE40
07FE6BFFE0
0BFFFFFFD0
1FFBFFFF40
2FE7FFFF00
3FD150FF00
7FC006FF00
3F8003FD00
2E0001F400
ENDCHAR
STARTCHAR AE
ENCODING 198
SWIDTH 1153 0
DWIDTH 28 0
BBX 31 19 -2 -1
BITMAP
0000004000000100
000001F80016BFD0
000007FD06FFFFF4
00006FFD7FFFFFE0
0002FFFDBFFFFE40
0007FFFD7FFE4000
000FFFFD3FD00000
002FFAFD2FEAA000
007FE2FE3FFFF900
00FF81FFBFFFFD00
02FF5AFFFFFFF400
07FFFFFFFF554000
0BFFFFFFFD000000
1FF7FFFFFC016900
3FD150FFFFFFFF80
7F8006FFFFFFFF80
7F4007FEFFFFFE00
3E0002F4BFFFA400
0000000001000000
ENDCHAR
STARTCHAR Ccedilla
ENCODING 199
SWIDTH 611 0
DWIDTH 15 0
BBX 14 25 0 -8
BITMAP
00002F80
0001FFE0
001FFFF0
00BFFFE0
07FFFF80
1FFFE400
3FFF4000
BFF40000
FFD00000
FF400000
FE000000
BE000000
7FA50000
3FFFFF80
1FFFFFD0
03FFFFD0
00BFFF40
01F80000
02F90000
02FF4000
006FD000
0007F000
0BFFF000
0BFF8000
01650000
ENDCHAR
STARTCHAR Egrave
ENCODING 200
SWIDTH 626 0
DWIDTH 15 0
BBX 16 27 0 -1
BITMAP
00024000
000BD000
000FF400
000BFD00
0001FF40
00007F80
00001B80
00000100
00000010
0001AFF8
01BFFFFE
0FFFFFFD
1FFFFFA0
0FFFA400
0BF80000
07FEAD00
0BFFFF40
1FFFFF80
2FFFFE00
7FE55000
BF800000
BF405680
BFFFFFF0
7FFFFFF0
7FFFFFD0
1FFFE900
00400000
ENDCHAR
STARTCHAR Eacute
ENCODING 201
SWIDTH 626 0
DWIDTH 15 0
BBX 16 27 0 -1
BITMAP
00000180
00000BE0
00002FF0
0000BFE0
0002FF40
0003FD00
0002E000
00004000
00000010
0001AFF8
01BFFFFE
0FFFFFFD
1FFFFFA0
0FFFA400
0BF80000
07FEAD00
0BFFFF40
1FFFFF80
2FFFFE00
7FE55000
BF800000
BF405680
BFFFFFF0
7FFFFFF0
7FFFFFD0
1FFFE900
00400000
ENDCHAR
STARTCHAR Ecircumflex
ENCODING 202
SWIDTH 626 0
DWIDTH 15 0
BBX 16 26 0 -1
BITMAP
00001400
0001FE00
0007FF80
001FEFE0
003F87F8
002E01F4
00080050
00000010
0001AFF8
01BFFFFE
0FFFFFFD
1FFFFFA0
0FFFA400
0BF80000
07FEAD00
0BFFFF40
1FFFFF80
2FFFFE00
7FE55000
BF800000
BF405680
BFFFFFF0
7FFFFFF0
7FFFFFD0
1FFFE900
00400000
ENDCHAR
STARTCHAR Edieresis
ENCODING 203
SWIDTH 626 0
DWIDTH 15 0
BBX 16 24 0 -1
BITMAP
00050050
002F42F8
003FC2FC
003F41F8
00040000
00000010
0001AFF8
01BFFFFE
0FFFFFFD
1FFFFFA0
0FFFA400
0BF80000
07FEAD00
0BFFFF40
1FFFFF80
2FFFFE00
7FE55000
BF800000
BF405680
BFFFFFF0
7FFFFFF0
7FFFFFD0
1FFFE900
00400000
ENDCHAR
STARTCHAR Igrave
ENCODING 204
SWIDTH 515 0
DWIDTH 12 0
BBX 17 28 -1 -1
BITMAP
0002400000
000BE00000
000FF80000
0007FE0000
0001FF8000
00003FC000
00000BC000
0000000000
0000000000
0001555000
00BFFFFE00
01FFFFFF40
00FFFFFE40
00BAFE4000
0002FC0000
0002FC0000
0003F80000
0007F40000
000BF00000
000FE00000
001FD00000
003FC00000
007F800000
5AFFF80000
BFFFFE0000
BFFFFD0000
7FA6500000
1000000000
ENDCHAR
STARTCHAR Iacute
ENCODING 205
SWIDTH 515 0
DWIDTH 12 0
BBX 17 28 -1 -1
BITMAP
0000001800
0000007E00
000001FF40
000007FE00
00001FF400
00002FD000
00002E4000
0000040000
0000000000
0001555000
00BFFFFE00
01FFFFFF40
00FFFFFE40
00BAFE4000
0002FC0000
0002FC0000
0003F80000
0007F40000
000BF00000
000FE00000
001FD00000
003FC00000
007F800000
5AFFF80000
BFFFFE0000
BFFFFD0000
7FA6500000
1000000000
ENDCHAR
STARTCHAR Icircumflex
ENCODING 206
SWIDTH 515 0
DWIDTH 12 0
BBX 17 27 -1 -1
BITMAP
0000050000
00002FC000
0000FFF000
0007FEFD00
000BF0FF00
0007D03E00
0002000800
0000000000
0001555000
00BFFFFE00
01FFFFFF40
00FFFFFE40
00BAFE4000
0002FC0000
0002FC0000
0003F80000
0007F40000
000BF00000
000FE00000
001FD00000
003FC00000
007F800000
5AFFF80000
BFFFFE0000
BFFFFD0000
7FA6500000
1000000000
ENDCHAR
STARTCHAR Idieresis
ENCODING 207
SWIDTH 515 0
DWIDTH 12 0
BBX 17 25 -1 -1
BITMAP
0001801500
0007E03F40
000BF47F80
0007E02E00
0001400400
0000000000
0001555000
00BFFFFE00
01FFFFFF40
00FFFFFE40
00BAFE4000
0002FC0000
0002FC0000
0003F80000
0007F40000
000BF00000
000FE00000
001FD00000
003FC00000
007F800000
5AFFF80000
BFFFFE0000
BFFFFD0000
7FA6500000
1000000000
ENDCHAR
STARTCHAR Eth
ENCODING 208
SWIDTH 656 0
DWIDTH 16 0
BBX 17 18 -1 0
BITMAP
0040000000
00B9000000
00BFE00000
00BFFD0000
00FFFF8000
00FCBFF000
00BD06FC00
16FF80BE00
7FFFE02F00
7FFFE02F40
3FFE80BF40
15FD0BFF00
01FDBFFD00
02FFFFF400
03FFFF8000
03FFF90000
02FF900000
01F8000000
ENDCHAR
STARTCHAR Ntilde
ENCODING 209
SWIDTH 684 0
DWIDTH 16 0
BBX 19 24 -1 0
BITMAP
00001BE0A8
00007FFAF8
0000FFFFF4
0001F8FFD0
0001501A40
0000000000
0000000400
000B400B40
000FE00FD0
002FF42FF0
003FF42FE0
00BFF43FD0
00FFF03FC0
01FFE07F80
03FFE0BF80
07FFE0FF40
0FFFE2FF40
1FFFE7FF00
3FFFFFFE00
7FF7FFFD00
3FE1FFF800
2FD0BFF400
1FC01FD000
0B40050000
ENDCHAR
STARTCHAR Ograve
ENCODING 210
SWIDTH 744 0
DWIDTH 18 0
BBX 17 26 0 -1
BITMAP
0000090000
00002F8000
00003FE000
00002FF800
000007FD00
000001FF00
0000002E00
0000064400
00002FD000
0000FFF000
0007FFF000
001FFFF000
00BFFFF400
01FFFBF800
07FF41FD00
0FFD00FF00
2FF4007F40
3FD0003F80
7F80003FC0
BF4001BFC0
BF405BFF80
BFFFFFFF40
7FFFFFFD00
2FFFFFE000
07FFE90000
0005000000
ENDCHAR
STARTCHAR Oacute
ENCODING 211
SWIDTH 744 0
DWIDTH 18 0
BBX 17 27 0 -1
BITMAP
0000018000
000007F000
00001FF400
00007FE000
0001FF4000
0002FD0000
0002E40000
0000400000
0000064000
00002FD000
0000FFF000
0007FFF000
001FFFF000
00BFFFF400
01FFFBF800
07FF41FD00
0FFD00FF00
2FF4007F40
3FD0003F80
7F80003FC0
BF4001BFC0
BF405BFF80
BFFFFFFF40
7FFFFFFD00
2FFFFFE000
07FFE90000
0005000000
ENDCHAR
STARTCHAR Ocircumflex
ENCODING 212
SWIDTH 744 0
DWIDTH 18 0
BBX 17 26 0 -1
BITMAP
0000024000
00001FE000
00007FF800
0001FEFE00
0003F87F80
0002E01F40
0000800500
0000064000
00002FD000
0000FFF000
0007FFF000
001FFFF000
00BFFFF400
01FFFBF800
07FF41FD00
0FFD00FF00
2FF4007F40
3FD0003F80
7F80003FC0
BF4001BFC0
BF405BFF80
BFFFFFFF40
7FFFFFFD00
2FFFFFE000
07FFE90000
0005000000
ENDCHAR
STARTCHAR Otilde
ENCODING 213
SWIDTH 744 0
DWIDTH 18 0
BBX 18 25 0 -1
BITMAP
00006F82A0
0001FFEBE0
0003FFFFD0
0007E3FF40
0005406900
0000000000
0000064000
00002FD000
0000FFF000
0007FFF000
001FFFF000
00BFFFF400
01FFFBF800
07FF41FD00
0FFD00FF00
2FF4007F40
3FD0003F80
7F80003FC0
BF4001BFC0
BF405BFF80
BFFFFFFF40
7FFFFFFD00
2FFFFFE000
07FFE90000
0005000000
ENDCHAR
STARTCHAR Odieresis
ENCODING 214
SWIDTH 744 0
DWIDTH 18 0
BBX 17 24 0 -1
BITMAP
0001501500
0003F03F80
0007F83F80
0007E02F40
0001400400
0000064000
00002FD000
0000FFF000
0007FFF000
001FFFF000
00BFFFF400
01FFFBF800
07FF41FD00
0FFD00FF00
2FF4007F40
3FD0003F80
7F80003FC0
BF4001BFC0
BF405BFF80
BFFFFFFF40
7FFFFFFD00
2FFFFFE000
07FFE90000
0005000000
ENDCHAR
STARTCHAR multiply
ENCODING 215
SWIDTH 490 0
DWIDTH 12 0
BBX 12 13 0 0
BITMAP
040000
1F406D
1FC1FE
0FEBFD
07FFE0
02FF40
07FD00
1FFF00
3FEF80
BF0FD0
FC0BE0
F403D0
700140
ENDCHAR
STARTCHAR Oslash
ENCODING 216
SWIDTH 744 0
DWIDTH 18 0
BBX 17 21 0 -3
BITMAP
0000064140
00002FDB80
0000FFFFC0
0007FFFF80
001FFFFF80
00BFFFFE00
01FFFFFC00
07FF5FFD00
0FFD7FFE00
2FF4FFBF40
3FD2FE3F80
7F8BFC3FC0
BF5FF1BFC0
BFBFEBFF80
BFFFFFFF40
7FFFFFFD00
1FFFFFE000
0BFFE90000
0BF5000000
0BF0000000
07E0000000
ENDCHAR
STARTCHAR Ugrave
ENCODING 217
SWIDTH 695 0
DWIDTH 17 0
BBX 17 24 1 0
BITMAP
0024000000
00BD000000
00FF800000
00BFD00000
001FF40000
0007F80000
0000B81000
0000103C00
0400003D00
2D00007E00
3F0000BF00
7F4000BF40
7F8000FF00
BF8002FF00
BF4003FE00
BF400BFC00
BF402FF800
BF41FFF000
BFAFFF8000
BFFFFF0000
3FFFFD0000
2FFFF40000
1FFF800000
06A8000000
ENDCHAR
STARTCHAR Uacute
ENCODING 218
SWIDTH 695 0
DWIDTH 17 0
BBX 17 25 1 0
BITMAP
0000018000
000007E000
00001FF400
00007FE000
0001FF4000
0002FD0000
0002E40000
0000401000
0000003C00
0400003D00
2D00007E00
3F0000BF00
7F4000BF40
7F8000FF00
BF8002FF00
BF4003FE00
BF400BFC00
BF402FF800
BF41FFF000
BFAFFF8000
BFFFFF0000
3FFFFD0000
2FFFF40000
1FFF800000
06A8000000
ENDCHAR
STARTCHAR Ucircumflex
ENCODING 219
SWIDTH 695 0
DWIDTH 17 0
BBX 17 25 1 0
BITMAP
0000500000
0002FC0000
000FFF0000
007FEFD000
00BF0FF000
007D03E000
0020008000
0000001000
0000003C00
0400003D00
2D00007E00
3F0000BF00
7F4000BF40
7F8000FF00
BF8002FF00
BF4003FE00
BF400BFC00
BF402FF800
BF41FFF000
BFAFFF8000
BFFFFF0000
3FFFFD0000
2FFFF40000
1FFF800000
06A8000000
ENDCHAR
STARTCHAR Udieresis
ENCODING 220
SWIDTH 695 0
DWIDTH 17 0
BBX 17 23 1 0
BITMAP
0018014000
00BE07F400
00BF47F400
00BE07E000
0014004000
0000001000
0000003C00
0400003D00
2D00007E00
3F0000BF00
7F4000BF40
7F8000FF00
BF8002FF00
BF4003FE00
BF400BFC00
BF402FF800
BF41FFF000
BFAFFF8000
BFFFFF0000
3FFFFD0000
2FFFF40000
1FFF800000
06A8000000
ENDCHAR
STARTCHAR Yacute
ENCODING 221
SWIDTH 493 0
DWIDTH 12 0
BBX 14 28 1 -1
BITMAP
00000A00
00002F40
0000BF80
0002FF40
000BFC00
000FE000
000F8000
00040000
00000000
10000600
BD002F80
BF00BFD0
7F42FFC0
7F87FF40
7F8FFD00
3FEFF400
2FFFE000
1FFFC000
0FFF4000
07FE0000
0BFC0000
1FF40000
2FF00000
7FD00000
BF800000
FF400000
BE000000
18000000
ENDCHAR
STARTCHAR Thorn
ENCODING 222
SWIDTH 680 0
DWIDTH 16 0
BBX 17 18 0 0
BITMAP
0040000000
02E0000000
03F0000000
07F5000000
0BFFFE9000
0FFFFFF800
0FFFFFFE00
1FF556FF40
2FE002FF40
3FE01FFF40
3FD1BFFE00
3FEFFFF400
7FFFFF8000
7FFFE40000
3FF9000000
3FC0000000
2FC0000000
1F80000000
ENDCHAR
STARTCHAR germandbls
ENCODING 223
SWIDTH 931 0
DWIDTH 22 0
BBX 25 16 0 -1
BITMAP
00005500015400
001BFF806FFF00
06FFFFEBFFFF80
2FFFFFFFFFFFC0
BFF901FFE40000
BFF901FFE40000
BFFF41FFFE0000
1AFFC06BFF4000
0007E0001B8000
0002F00007D000
0007F0001FC000
007FE001BF8000
2FFF807FFF0000
2FFE00BFF80000
2FE4007F900000
05000014000000
ENDCHAR
STARTCHAR agrave
ENCODING 224
SWIDTH 581 0
DWIDTH 14 0
BBX 15 24 -1 -1
BITMAP
00018000
0007E000
000BFC00
0007FF00
0000BF80
00002FD0
000007C0
00000040
00000000
0000F800
0002FD00
002FFD00
00BFFE00
00FFFF00
02FE7F00
03FC3F40
07F47FF4
0FFFFFF8
1FFFFFE0
2F9FEFD0
7F400FD0
7F003FD0
3E001F40
04000400
ENDCHAR
STARTCHAR aacute
ENCODING 225
SWIDTH 581 0
DWIDTH 14 0
BBX 15 24 -1 -1
BITMAP
00000640
00001FC0
00007FD0
0001FF80
0007FE00
000BF400
0007D000
00010000
00000000
0000F800
0002FD00
002FFD00
00BFFE00
00FFFF00
02FE7F00
03FC3F40
07F47FF4
0FFFFFF8
1FFFFFE0
2F9FEFD0
7F400FD0
7F003FD0
3E001F40
04000400
ENDCHAR
STARTCHAR acircumflex
ENCODING 226
SWIDTH 581 0
DWIDTH 14 0
BBX 15 23 -1 -1
BITMAP
00002400
0001FE00
0007FF80
002FEFE0
007F87F4
003E01F0
00140050
00000000
0000F800
0002FD00
002FFD00
00BFFE00
00FFFF00
02FE7F00
03FC3F40
07F47FF4
0FFFFFF8
1FFFFFE0
2F9FEFD0
7F400FD0
7F003FD0
3E001F40
04000400
ENDCHAR
STARTCHAR atilde
ENCODING 227
SWIDTH 581 0
DWIDTH 14 0
BBX 16 21 -1 -1
BITMAP
0006F81A
001FFE7F
002FFFFD
007E2FF8
00140690
00000000
0000F800
0002FD00
002FFD00
00BFFE00
00FFFF00
02FE7F00
03FC3F40
07F47FF4
0FFFFFF8
1FFFFFE0
2F9FEFD0
7F400FD0
7F003FD0
3E001F40
04000400
ENDCHAR
STARTCHAR adieresis
ENCODING 228
SWIDTH 581 0
DWIDTH 14 0
BBX 16 22 -1 -1
BITMAP
00060054
002F81FD
002FD1FD
002F81B8
00050010
00000000
00000000
0000F800
0002FD00
002FFD00
00BFFE00
00FFFF00
02FE7F00
03FC3F40
07F47FF4
0FFFFFF8
1FFFFFE0
2F9FEFD0
7F400FD0
7F003FD0
3E001F40
04000400
ENDCHAR
STARTCHAR aring
ENCODING 229
SWIDTH 581 0
DWIDTH 14 0
BBX 15 21 -1 -1
BITMAP
00000600
00001F80
0000BF80
0001FFD0
0003E3E0
0003FFE0
0003FFD0
0002FE00
002FFD00
00BFFE00
00FFFF00
02FE7F00
03FC3F40
07F47FF4
0FFFFFF8
1FFFFFE0
2F9FEFD0
7F400FD0
7F003FD0
3E001F40
04000400
ENDCHAR
STARTCHAR ae
ENCODING 230
SWIDTH 948 0
DWIDTH 23 0
BBX 26 16 -2 -1
BITMAP
00000400000500
00001F401AFF80
00007F86FFFFD0
000BFFDFFFFF40
001FFFCFFF9000
003FFFCBE00000
00BF9FCBFFE000
01FE1FDFFFFC00
02FD1FFFFFF800
07FFFFFFEA8000
0FFFFFFF400000
2FDFEFFF556D00
7F400FFFFFFF00
7F007FFFFFFE00
7D002F5FFFE400
00000401500000
ENDCHAR
STARTCHAR ccedilla
ENCODING 231
SWIDTH 513 0
DWIDTH 12 0
BBX 12 22 0 -7
BITMAP
000010
0001F8
001FFE
01BFFE
07FFF8
1FFE40
7FF800
BF8000
FE0000
FC0000
BC0000
7F9550
3FFFF8
1BFFFD
01FFF4
01F400
03F400
02FF00
005F80
055FC0
0FFF80
06A900
ENDCHAR
STARTCHAR egrave
ENCODING 232
SWIDTH 521 0
DWIDTH 13 0
BBX 13 24 0 -1
BITMAP
00900000
02F80000
03FE0000
02FF8000
007FD000
001FF000
0002E000
00004000
00000400
001AFF80
06FFFFC0
1FFFFE40
1FFF9000
0FE00000
0BFBE000
1FFFF800
2FFFF400
7FAA4000
BF000000
BE15A800
BFFFFE00
7FFFFD00
2FFFE400
01500000
ENDCHAR
STARTCHAR eacute
ENCODING 233
SWIDTH 521 0
DWIDTH 13 0
BBX 13 24 0 -1
BITMAP
00001800
0000BE00
0002FF00
000BFE00
001FF400
003FD000
002E0000
00040000
00000400
001AFF80
06FFFFC0
1FFFFE40
1FFF9000
0FE00000
0BFBE000
1FFFF800
2FFFF400
7FAA4000
BF000000
BE15A800
BFFFFE00
7FFFFD00
2FFFE400
01500000
ENDCHAR
STARTCHAR ecircumflex
ENCODING 234
SWIDTH 521 0
DWIDTH 13 0
BBX 14 23 0 -1
BITMAP
00005000
0007F800
001FFE00
007FBF80
00FE1FE0
00B807D0
00200140
00000400
001AFF80
06FFFFC0
1FFFFE40
1FFF9000
0FE00000
0BFBE000
1FFFF800
2FFFF400
7FAA4000
BF000000
BE15A800
BFFFFE00
7FFFFD00
2FFFE400
01500000
ENDCHAR
STARTCHAR edieresis
ENCODING 235
SWIDTH 521 0
DWIDTH 13 0
BBX 15 22 0 -1
BITMAP
00180150
00BE07F4
00BF47F4
00BE06E0
00140040
00000000
00000400
001AFF80
06FFFFC0
1FFFFE40
1FFF9000
0FE00000
0BFBE000
1FFFF800
2FFFF400
7FAA4000
BF000000
BE15A800
BFFFFE00
7FFFFD00
2FFFE400
01500000
ENDCHAR
STARTCHAR igrave
ENCODING 236
SWIDTH 320 0
DWIDTH 8 0
BBX 8 24 1 -1
BITMAP
0900
2F80
3FE0
2FF8
07FD
01FF
002E
0004
0100
0740
0FC0
1FC0
1FD0
2FC0
3F80
3F40
7F40
7F00
BF00
BF00
7F00
3F00
2E00
0400
ENDCHAR
STARTCHAR iacute
ENCODING 237
SWIDTH 320 0
DWIDTH 8 0
BBX 12 24 1 -1
BITMAP
000024
0001FD
0003FE
000FFD
002FE0
007F80
007D00
001000
010000
074000
0FC000
1FC000
1FD000
2FC000
3F8000
3F4000
7F4000
7F0000
BF0000
BF0000
7F0000
3F0000
2E0000
040000
ENDCHAR
STARTCHAR icircumflex
ENCODING 238
SWIDTH 320 0
DWIDTH 8 0
BBX 10 23 1 -1
BITMAP
005000
03F800
0FFF00
7FBFD0
FF0FE0
BC07D0
200080
010000
074000
0FC000
1FC000
1FD000
2FC000
3F8000
3F4000
7F4000
7F0000
BF0000
BF0000
7F0000
3F0000
2E0000
040000
ENDCHAR
STARTCHAR idieresis
ENCODING 239
SWIDTH 320 0
DWIDTH 8 0
BBX 10 22 1 -1
BITMAP
140140
FD0BE0
FF0BF0
FD07D0
100000
000000
010000
074000
0FC000
1FC000
1FD000
2FC000
3F8000
3F4000
7F4000
7F0000
BF0000
BF0000
7F0000
3F0000
2E0000
040000
ENDCHAR
STARTCHAR eth
ENCODING 240
SWIDTH 541 0
DWIDTH 13 0
BBX 14 15 -1 0
BITMAP
01400000
02F40000
01FF8000
02FFF400
02E7FD00
02F06F40
6BFD0BC0
BFFF03D0
7FFE07E0
2BF06FD0
03F6FF80
07FFFE00
0BFFF400
07FF4000
03E40000
ENDCHAR
STARTCHAR ntilde
ENCODING 241
SWIDTH 564 0
DWIDTH 14 0
BBX 18 21 -1 0
BITMAP
00006F42E0
0002FFEBE0
0007FFFFC0
000BD7FF40
000540A400
0000000000
0000004000
002D00E000
003F41F800
00BF82FC00
00FF83F800
02FF43F400
03FF07F000
0BFF0BF000
0FFF0FE000
1FFF6FE000
3FFFFFD000
7FDFFFC000
3F87FF4000
2F41FE0000
0E00640000
ENDCHAR
STARTCHAR ograve
ENCODING 242
SWIDTH 628 0
DWIDTH 15 0
BBX 15 23 0 -1
BITMAP
00018000
0007E000
000BFC00
0007FF00
0000BF80
00002FD0
000007C0
00002440
0002FD00
000BFF00
002FFE00
00BFFF00
03FFFF40
0BF81FC0
2FE00BD0
3F8003E0
7F4003F0
BE000BF4
BE45BFF0
BFFFFFD0
3FFFFF40
1BFFE400
01540000
ENDCHAR
STARTCHAR oacute
ENCODING 243
SWIDTH 628 0
DWIDTH 15 0
BBX 15 24 0 -1
BITMAP
00000A00
00002F40
0000BF80
0002FF40
000BFC00
000FE000
000F8000
00040000
00002400
0002FD00
000BFF00
002FFE00
00BFFF00
03FFFF40
0BF81FC0
2FE00BD0
3F8003E0
7F4003F0
BE000BF4
BE45BFF0
BFFFFFD0
3FFFFF40
1BFFE400
01540000
ENDCHAR
STARTCHAR ocircumflex
ENCODING 244
SWIDTH 628 0
DWIDTH 15 0
BBX 15 23 0 -1
BITMAP
00001400
0000BF00
0003FFC0
001FFBF4
002FC3FC
001F40F8
00080020
00002400
0002FD00
000BFF00
002FFE00
00BFFF00
03FFFF40
0BF81FC0
2FE00BD0
3F8003E0
7F4003F0
BE000BF4
BE45BFF0
BFFFFFD0
3FFFFF40
1BFFE400
01540000
ENDCHAR
STARTCHAR otilde
ENCODING 245
SWIDTH 628 0
DWIDTH 15 0
BBX 17 21 0 -1
BITMAP
0001BD0B80
000BFFAF80
001FFFFF00
002F5FFD00
0015029000
0000240000
0002FD0000
000BFF0000
002FFE0000
00BFFF0000
03FFFF4000
0BF81FC000
2FE00BD000
3F8003E000
7F4003F000
BE000BF400
BE45BFF000
BFFFFFD000
3FFFFF4000
1BFFE40000
0154000000
ENDCHAR
STARTCHAR odieresis
ENCODING 246
SWIDTH 628 0
DWIDTH 15 0
BBX 16 22 0 -1
BITMAP
00060054
001F80FD
002FD1FE
001F80B8
00050010
00000000
00002400
0002FD00
000BFF00
002FFE00
00BFFF00
03FFFF40
0BF81FC0
2FE00BD0
3F8003E0
7F4003F0
BE000BF4
BE45BFF0
BFFFFFD0
3FFFFF40
1BFFE400
01540000
ENDCHAR
STARTCHAR divide
ENCODING 247
SWIDTH 559 0
DWIDTH 13 0
BBX 13 15 0 -1
BITMAP
000A4000
002FC000
002FD000
001F8000
00050000
01569400
BFFFFE00
BFFFFF40
7FEAA500
14000000
00A80000
02FD0000
02FC0000
01F80000
00100000
ENDCHAR
STARTCHAR oslash
ENCODING 248
SWIDTH 632 0
DWIDTH 15 0
BBX 15 18 0 -3
BITMAP
00002410
0002FDF0
000BFFF4
002FFFF0
00BFFFE0
03FFFF80
0BFDBFC0
1FE2FFD0
3F87F7E0
7F5FD3F0
BE7F8BF4
BEFFBFF0
BFFFFFE0
3FFFFF40
1FFFE400
0FE40000
0FD00000
06800000
ENDCHAR
STARTCHAR ugrave
ENCODING 249
SWIDTH 584 0
DWIDTH 14 0
BBX 14 23 1 0
BITMAP
00600000
01F80000
02FF0000
01FFC000
002FE000
000BF400
0001F000
00001000
00000100
00000380
140007C0
3D000BD0
7E000BE0
7F000FD0
BF001FD0
BE003FC0
BE00FF40
BE07FE00
BF6FF800
7FFFF000
3FFFD000
2FFE4000
0BE40000
ENDCHAR
STARTCHAR uacute
ENCODING 250
SWIDTH 584 0
DWIDTH 14 0
BBX 14 22 1 0
BITMAP
00000A00
00002F40
0000BF80
0002FF40
000BFC00
000FE000
000F8000
00040100
00000380
140007C0
3D000BD0
7E000BE0
7F000FD0
BF001FD0
BE003FC0
BE00FF40
BE07FE00
BF6FF800
7FFFF000
3FFFD000
2FFE4000
0BE40000
ENDCHAR
STARTCHAR ucircumflex
ENCODING 251
SWIDTH 584 0
DWIDTH 14 0
BBX 14 22 1 0
BITMAP
00014000
000BF000
002FFD00
01FFBF40
02FC3FC0
01F40B80
00800200
00000100
00000380
140007C0
3D000BD0
7E000BE0
7F000FD0
BF001FD0
BE003FC0
BE00FF40
BE07FE00
BF6FF800
7FFFF000
3FFFD000
2FFE4000
0BE40000
ENDCHAR
STARTCHAR udieresis
ENCODING 252
SWIDTH 584 0
DWIDTH 14 0
BBX 14 21 1 0
BITMAP
00600540
02F81FD0
02FD1FD0
02F81B80
00500100
00000000
00000100
00000380
140007C0
3D000BD0
7E000BE0
7F000FD0
BF001FD0
BE003FC0
BE00FF40
BE07FE00
BF6FF800
7FFFF000
3FFFD000
2FFE4000
0BE40000
ENDCHAR
STARTCHAR yacute
ENCODING 253
SWIDTH 400 0
DWIDTH 10 0
BBX 12 25 1 -1
BITMAP
000018
0000BE
0002FF
000BFE
001FF4
003FD0
002E00
000400
000000
100060
B801F8
BE07FC
7E1FF8
7F2FE0
3FBF80
3FFF00
2FFD00
0FF800
0FF000
2FD000
3F8000
BF4000
FE0000
BD0000
280000
ENDCHAR
STARTCHAR thorn
ENCODING 254
SWIDTH 579 0
DWIDTH 14 0
BBX 14 15 0 0
BITMAP
01400000
07C00000
0BD00000
0FFFE900
1FFFFF80
1FFAFFE0
2FC01FF0
3F807FF0
3F86FFD0
7FAFFF40
7FFFE400
7FFE4000
3F900000
2F400000
1F000000
ENDCHAR
STARTCHAR ydieresis
ENCODING 255
SWIDTH 400 0
DWIDTH 10 0
BBX 13 22 1 -1
BITMAP
01801500
07E07F40
0BF47F40
0BE06E00
01400400
00000000
10006000
B801F800
BE07FC00
7E1FF800
7F2FE000
3FBF8000
3FFF0000
2FFD0000
0FF80000
0FF00000
2FD00000
3F800000
BF400000
FE000000
BD000000
28000000
ENDCHAR
STARTCHAR dotlessi
ENCODING 305
SWIDTH 320 0
DWIDTH 8 0
BBX 6 16 1 -1
BITMAP
0100
0740
0FC0
1FC0
1FD0
2FC0
3F80
3F40
7F40
7F00
BF00
BF00
7F00
3F00
2E00
0400
ENDCHAR
STARTCHAR Lslash
ENCODING 321
SWIDTH 632 0
DWIDTH 15 0
BBX 18 19 -3 -1
BITMAP
0001400000
0003F40000
0007FC0000
000BFC0000
000FF80000
001FF40000
002FFA0000
007FFFC000
1BFFFE4000
7FFFD00000
3FFF400000
1AFF000000
02FE000000
02FE6AB900
02FFFFFF90
01FFFFFFD0
00FFFFFFE0
007FE55540
0005000000
ENDCHAR
STARTCHAR lslash
ENCODING 322
SWIDTH 533 0
DWIDTH 13 0
BBX 16 16 -3 -1
BITMAP
00010000
000BD000
000FF000
001FE000
002FD000
003FE400
00BFFE00
1BFFF800
7FFF4000
3FFD0000
06FC0000
02FDAFD0
02FFFFFC
01FFFFFD
00BFE9A4
00150000
ENDCHAR
STARTCHAR OE
ENCODING 338
SWIDTH 1212 0
DWIDTH 29 0
BBX 30 19 0 -1
BITMAP
0000064000000100
00002FD0001AFF80
0000FFF01BFFFFE0
0007FFF0FFFFFFD0
001FFFF0FFFFFA00
00BFFFF4FFFA4000
01FFFBF8BF800000
07FF41FD7FEAD000
0FFD00FEBFFFF400
2FF4007FFFFFFC00
3FD0003FFFFFE000
7F80003FFE550000
BF4001BFFC000000
BF405BFFF4056800
BFFFFFFFFFFFFF00
7FFFFFFFFFFFFF00
2FFFFFE7FFFFFD00
07FFE901FFFE9000
0005000004000000
ENDCHAR
STARTCHAR oe
ENCODING 339
SWIDTH 1010 0
DWIDTH 24 0
BBX 25 16 0 -1
BITMAP
00002400000400
0002FD001AFF40
000BFF0BFFFF80
003FFE2FFFFE00
00FFFF2FFE5000
03FFFF5FD00000
0BF81FCFFFD000
2FE00BEFFFF400
3F8003FFFFF400
7F0003FFAA4000
BE000BFE000000
BE55BFFE15B800
BFFFFFFFFFFE00
3FFFFFBFFFFD00
1BFFE42FFFA000
01540005400000
ENDCHAR
STARTCHAR Scaron
ENCODING 352
SWIDTH 576 0
DWIDTH 14 0
BBX 17 27 0 -1
BITMAP
0004001000
001E00B400
002FC2FC00
001FEBF400
0007FFD000
0001FF4000
0000280000
0000000000
0000055400
0006FFFD00
01BFFFFE00
1BFFFFFF40
7FFFFBAA00
BFFD000000
BFFF400000
BFFFF00000
2FFFF40000
005BFD0000
00007E0000
00007F0000
0001FF0000
001BFD0000
1AFFF80000
2FFFE00000
2FFF800000
1FF8000000
0500000000
ENDCHAR
STARTCHAR scaron
ENCODING 353
SWIDTH 463 0
DWIDTH 11 0
BBX 14 24 0 -1
BITMAP
00400500
02D01F00
07F47F40
02FEFE00
00BFF800
001FE000
00064000
00000000
00005500
001BFF80
06FFFFD0
2FFFFFE0
BFF90040
BFF90000
BFFF4000
1AFFC000
0007E000
0002F000
0007F000
007FE000
2FFF8000
2FFE0000
2FE40000
05000000
ENDCHAR
STARTCHAR Ydieresis
ENCODING 376
SWIDTH 493 0
DWIDTH 12 0
BBX 14 25 1 -1
BITMAP
00600540
02F81FD0
02FD1FD0
02F81B80
00500100
00000000
10000600
BD002F80
BF00BFD0
7F42FFC0
7F87FF40
7F8FFD00
3FEFF400
2FFFE000
1FFFC000
0FFF4000
07FE0000
0BFC0000
1FF40000
2FF00000
7FD00000
BF800000
FF400000
BE000000
18000000
ENDCHAR
STARTCHAR Zcaron
ENCODING 381
SWIDTH 664 0
DWIDTH 16 0
BBX 18 27 -1 -1
BITMAP
0000100040
00007D02E0
0000BF0BF0
00007FEFE0
00000FFF40
000002FD00
000000A000
0000000000
0001400000
007FFFFF80
007FFFFFD0
007FFFFFE0
002FEBFFD0
00000BFF80
00002FFD00
0001FFF400
000BFFD000
007FFF0000
02FFF80000
0BFFD00000
2FFE001000
3FF406FC00
7FF5BFFF00
7FFFFFFE00
2FFFFFE400
1FFFE90000
06F9400000
ENDCHAR
STARTCHAR zcaron
ENCODING 382
SWIDTH 547 0
DWIDTH 13 0
BBX 16 25 -1 -1
BITMAP
00010004
0007802D
000BF0BF
0007FAFD
0001FFF4
00007FD0
00000A00
00000000
00000000
00050000
00FFFFF0
00FFFFF8
00BFFFF8
00147FF4
0001FF80
0007FE00
007FF800
01FFE000
0BFF4000
2FF80100
3FD06F80
7FEBFFD0
3FFFFF80
1FFFE400
06E90000
ENDCHAR
STARTCHAR circumflex
ENCODING 710
SWIDTH 754 0
DWIDTH 18 0
BBX 11 7 5 12
BITMAP
006400
01FD00
0BFF80
2FEFE0
7F8BF4
3E02F0
140050
ENDCHAR
STARTCHAR caron
ENCODING 711
SWIDTH 754 0
DWIDTH 18 0
BBX 11 7 5 12
BITMAP
040040
3D01F0
7F47F4
2FEFE0
0BFF80
02FE00
006400
ENDCHAR
STARTCHAR breve
ENCODING 728
SWIDTH 754 0
DWIDTH 18 0
BBX 11 6 5 13
BITMAP
040040
3D01F0
7F57F4
3FFFF0
0BFF80
01A900
ENDCHAR
STARTCHAR dotaccent
ENCODING 729
SWIDTH 754 0
DWIDTH 18 0
BBX 5 5 8 13
BITMAP
1800
7F00
7F40
7E00
1400
ENDCHAR
STARTCHAR ring
ENCODING 730
SWIDTH 754 0
DWIDTH 18 0
BBX 7 8 7 12
BITMAP
0040
02E0
1FE0
3FF4
BDF8
FEFC
FFF8
7F90
ENDCHAR
STARTCHAR ogonek
ENCODING 731
SWIDTH 754 0
DWIDTH 18 0
BBX 9 8 7 -7
BITMAP
240000
B40000
F80000
B80000
BE9500
3FFFC0
0BFFC0
005500
ENDCHAR
STARTCHAR tilde
ENCODING 732
SWIDTH 754 0
DWIDTH 18 0
BBX 12 5 4 13
BITMAP
02F81A
0FFF7F
2FFFFD
7F2FF8
140690
ENDCHAR
STARTCHAR hungarumlaut
ENCODING 733
SWIDTH 754 0
DWIDTH 18 0
BBX 13 8 4 10
BITMAP
00600600
02F42F80
0BFCBFC0
2FF6FF80
BFD7FD00
FE0BF400
F80B8000
00010000
ENDCHAR
STARTCHAR endash
ENCODING 8211
SWIDTH 588 0
DWIDTH 14 0
BBX 13 4 0 4
BITMAP
6BFFFE00
BFFFFF80
7FFFFE40
19400000
ENDCHAR
STARTCHAR emdash
ENCODING 8212
SWIDTH 878 0
DWIDTH 21 0
BBX 20 5 0 4
BITMAP
0015555000
7FFFFFFFE0
7FFFFFFFFE
2FFFFFFFA9
0540000000
ENDCHAR
STARTCHAR quoteleft
ENCODING 8216
SWIDTH 203 0
DWIDTH 5 0
BBX 6 7 2 11
BITMAP
1F90
2FD0
7FC0
BF40
BF00
BE00
7D00
ENDCHAR
STARTCHAR quoteright
ENCODING 8217
SWIDTH 199 0
DWIDTH 5 0
BBX 6 8 2 10
BITMAP
1E40
1FD0
2FD0
3FC0
BF40
FF00
BD00
1000
ENDCHAR
STARTCHAR quotesinglbase
ENCODING 8218
SWIDTH 204 0
DWIDTH 5 0
BBX 6 8 -3 -4
BITMAP
0100
0BD0
0FF0
0FF0
1FE0
3FC0
BF80
2E00
ENDCHAR
STARTCHAR quotedblleft
ENCODING 8220
SWIDTH 410 0
DWIDTH 10 0
BBX 11 8 2 10
BITMAP
1F87E0
3FCFF4
7F9FF0
BF6FD0
BE3FC0
BD2F40
BD1F40
180000
ENDCHAR
STARTCHAR quotedblright
ENCODING 8221
SWIDTH 425 0
DWIDTH 10 0
BBX 11 8 2 10
BITMAP
1E42E4
1FD3F8
2FD7F8
3FCBF4
BF5FE0
FF3FC0
BD2F40
100400
ENDCHAR
STARTCHAR quotedblbase
ENCODING 8222
SWIDTH 430 0
DWIDTH 10 0
BBX 12 8 -3 -4
BITMAP
010000
0BD0F8
0FF1FD
0FF2FD
1FE7F8
3FCBF4
BF9FE0
2E0B80
ENDCHAR
STARTCHAR bullet
ENCODING 8226
SWIDTH 299 0
DWIDTH 7 0
BBX 5 6 1 4
BITMAP
2900
BF40
FF80
FF80
FF40
5500
ENDCHAR
STARTCHAR ellipsis
ENCODING 8230
SWIDTH 768 0
DWIDTH 18 0
BBX 18 5 -1 -1
BITMAP
1900900640
7F42FC1FD0
BF43F82FD0
7F02F81FC0
1800900600
ENDCHAR
STARTCHAR perthousand
ENCODING 8240
SWIDTH 889 0
DWIDTH 21 0
BBX 21 17 1 0
BITMAP
01E000280000
07F000B80000
1FF402F40000
7EF80BF00000
BDBC2FC00000
BFFCBF000000
7FE6F8000000
150BE0000000
002F80000000
00BE19002800
02F87F00BD00
0FE1FF03FE00
2F87FF8BEF00
7E0BDBDF9F40
BD0BFFDFFF40
FC0BFF5FFE00
B40194069000
ENDCHAR
STARTCHAR guilsinglleft
ENCODING 8249
SWIDTH 322 0
DWIDTH 8 0
BBX 7 11 0 -1
BITMAP
007C
01FC
07F8
6FE0
FF40
FD00
BF40
3FC0
0BE0
01F0
0010
ENDCHAR
STARTCHAR guilsinglright
ENCODING 8250
SWIDTH 341 0
DWIDTH 8 0
BBX 8 11 -1 -1
BITMAP
1E00
0FD0
0BF4
02FD
00BE
02FE
0BF9
2FD0
7E00
7800
1000
ENDCHAR
STARTCHAR fraction
ENCODING 8260
SWIDTH 541 0
DWIDTH 13 0
BBX 13 19 0 -1
BITMAP
00000140
00000780
00001F80
00003F80
0000FF40
0002FD00
0007F400
001FE000
003F8000
00BF0000
02FD0000
07F40000
1FD00000
3F800000
7F000000
BE000000
BE000000
7D000000
14000000
ENDCHAR
STARTCHAR Euro
ENCODING 8364
SWIDTH 565 0
DWIDTH 14 0
BBX 14 15 -1 0
BITMAP
00000100
00001FC0
0001FFE0
000BFFE0
007FFF80
00FFE400
02FF4000
17FFA800
7FFFFF00
7FFFFE00
1BF54000
02FFAA40
00FFFFC0
002FFFC0
0001AA40
ENDCHAR
STARTCHAR Delta
ENCODING 8710
SWIDTH 403 0
DWIDTH 10 0
BBX 14 16 -1 -1
BITMAP
00055500
02FFFFD0
03FFFFE0
02FFFA40
004BD000
000FC000
001FC000
002F8000
003F4000
007F0000
00BE0000
01FD0000
6FFFD000
BFFFE000
7FAA4000
14000000
ENDCHAR
STARTCHAR minus
ENCODING 8722
SWIDTH 548 0
DWIDTH 13 0
BBX 12 4 0 4
BITMAP
ABFFF8
FFFFFF
FFFFFA
654000
ENDCHAR
STARTCHAR approxequal
ENCODING 8776
SWIDTH 323 0
DWIDTH 8 0
BBX 6 18 1 0
BITMAP
0040
0780
0FD0
1FE0
2FE0
2FF0
3FE0
7FD0
7FC0
BF80
FF40
FF40
FF00
FF00
FF00
BF40
7F40
3E00
ENDCHAR
STARTCHAR fi
ENCODING 64257
SWIDTH 810 0
DWIDTH 19 0
BBX 19 16 -1 -1
BITMAP
0000169010
0006FFF4B4
01BFFFFDF8
0FFFFA55FC
0BFE4002FC
03FC0003FC
01F80003F8
16F96807F4
7FFFFE0BF0
7FFFFD0BE0
3FFE940BE0
1FC0000FE0
2F80000BE0
2F400007E0
0F000003E0
0100000140
ENDCHAR
STARTCHAR fl
ENCODING 64258
SWIDTH 1012 0
DWIDTH 24 0
BBX 25 16 -1 -1
BITMAP
00001690400000
0006FFF4F80000
01BFFFFDFD0000
0FFFFA56FC0000
0BFE4003F80000
03FC0007F40000
01F8000BF00000
16F9680FE00000
7FFFFE1FD00000
7FFFFD2FC00000
3FFE943F800000
1FC0007F9BF900
2F80003FFFFF40
2F40002FFFFF80
0F00001FFA9A40
01000001400000
ENDCHAR
STARTCHAR .notdef
ENCODING -1
SWIDTH 370 0
DWIDTH 9 0
BBX 1 1 0 0
BITMAP
00
ENDCHAR
ENDFONT
